<svg width="35" height="35" viewBox="0 0 35 35" fill="none" xmlns="http://www.w3.org/2000/svg">
<circle cx="17.5" cy="17.5" r="17" stroke="#E0D7C8"/>
<path d="M23.679 14.1847H21.4631C21.3778 13.7112 21.2192 13.2945 20.9872 12.9347C20.7552 12.5748 20.4711 12.2694 20.1349 12.0185C19.7988 11.7675 19.4223 11.5781 19.0057 11.4503C18.5938 11.3224 18.1558 11.2585 17.6918 11.2585C16.8537 11.2585 16.1032 11.4692 15.4403 11.8906C14.7822 12.312 14.2614 12.9299 13.8778 13.7443C13.4991 14.5587 13.3097 15.553 13.3097 16.7273C13.3097 17.911 13.4991 18.91 13.8778 19.7244C14.2614 20.5388 14.7846 21.1544 15.4474 21.571C16.1103 21.9877 16.8561 22.196 17.6847 22.196C18.1439 22.196 18.5795 22.1345 18.9915 22.0114C19.4081 21.8835 19.7846 21.6965 20.1207 21.4503C20.4569 21.2041 20.741 20.9034 20.973 20.5483C21.2098 20.1884 21.3731 19.7765 21.4631 19.3125L23.679 19.3196C23.5606 20.0346 23.331 20.6927 22.9901 21.294C22.6539 21.8906 22.2206 22.4067 21.6903 22.8423C21.1648 23.2732 20.5634 23.607 19.8864 23.8438C19.2093 24.0805 18.4706 24.1989 17.6705 24.1989C16.411 24.1989 15.2888 23.9006 14.304 23.304C13.3191 22.7027 12.5426 21.8433 11.9744 20.7259C11.411 19.6084 11.1293 18.2756 11.1293 16.7273C11.1293 15.1742 11.4134 13.8414 11.9815 12.7287C12.5497 11.6113 13.3262 10.7543 14.3111 10.1577C15.2959 9.55634 16.4157 9.25568 17.6705 9.25568C18.4422 9.25568 19.1619 9.36695 19.8295 9.58949C20.5019 9.80729 21.1056 10.1293 21.6406 10.5554C22.1757 10.9768 22.6184 11.4929 22.9688 12.1037C23.3191 12.7098 23.5559 13.4034 23.679 14.1847Z" fill="#926D57"/>
</svg>
