<svg width="35" height="35" viewBox="0 0 35 35" fill="none" xmlns="http://www.w3.org/2000/svg">
<circle cx="17.5" cy="17.5" r="17" stroke="#E0D7C8"/>
<path d="M17.3068 25H12.598V10.4545H17.456C18.8812 10.4545 20.1051 10.7457 21.1278 11.3281C22.1506 11.9058 22.9342 12.7367 23.4787 13.821C24.0279 14.9006 24.3026 16.1955 24.3026 17.706C24.3026 19.2211 24.0256 20.5232 23.4716 21.6122C22.9223 22.7012 22.1269 23.5393 21.0852 24.1264C20.0436 24.7088 18.7841 25 17.3068 25ZM14.7926 23.0824H17.1861C18.294 23.0824 19.215 22.8741 19.9489 22.4574C20.6828 22.036 21.232 21.4276 21.5966 20.6321C21.9612 19.8319 22.1435 18.8565 22.1435 17.706C22.1435 16.5649 21.9612 15.5966 21.5966 14.8011C21.2367 14.0057 20.6993 13.402 19.9844 12.9901C19.2694 12.5781 18.3816 12.3722 17.321 12.3722H14.7926V23.0824Z" fill="#926D57"/>
</svg>
