<svg width="35" height="35" viewBox="0 0 35 35" fill="none" xmlns="http://www.w3.org/2000/svg">
<circle cx="17.5" cy="17.5" r="17" fill="white" stroke="#E0D7C8"/>
<path d="M12.598 25V10.4545H17.9247C18.9569 10.4545 19.8116 10.625 20.4886 10.9659C21.1657 11.3021 21.6723 11.759 22.0085 12.3366C22.3447 12.9096 22.5128 13.5559 22.5128 14.2756C22.5128 14.8816 22.4015 15.393 22.179 15.8097C21.9564 16.2216 21.6581 16.553 21.2841 16.804C20.9148 17.0502 20.5076 17.2301 20.0625 17.3438V17.4858C20.5455 17.5095 21.0166 17.6657 21.4759 17.9545C21.9399 18.2386 22.3234 18.6435 22.6264 19.169C22.9295 19.6946 23.081 20.3338 23.081 21.0866C23.081 21.83 22.9058 22.4976 22.5554 23.0895C22.2098 23.6766 21.6747 24.143 20.9503 24.4886C20.2259 24.8295 19.3002 25 18.1733 25H12.598ZM14.7926 23.1179H17.9602C19.0114 23.1179 19.7642 22.9143 20.2188 22.5071C20.6733 22.0999 20.9006 21.5909 20.9006 20.9801C20.9006 20.5208 20.7846 20.0994 20.5526 19.7159C20.3205 19.3324 19.9891 19.027 19.5582 18.7997C19.1321 18.5724 18.6255 18.4588 18.0384 18.4588H14.7926V23.1179ZM14.7926 16.7472H17.733C18.2254 16.7472 18.6681 16.6525 19.0611 16.4631C19.4588 16.2737 19.7737 16.0085 20.0057 15.6676C20.2424 15.322 20.3608 14.9148 20.3608 14.446C20.3608 13.8447 20.1501 13.3404 19.7287 12.9332C19.3073 12.526 18.661 12.3224 17.7898 12.3224H14.7926V16.7472Z" fill="#926D57"/>
</svg>
